<?xml version="1.0" encoding="UTF-8"?>
<svg viewBox="0 0 304 202" version="1.1" xmlns="http://www.w3.org/2000/svg" xmlns:xlink="http://www.w3.org/1999/xlink">
    <g id="Page-1" stroke="none" stroke-width="1" fill="none" fill-rule="evenodd">
        <g id="Desktop-HD" transform="translate(-1864.000000, -981.000000)">
            <g id="Group-2" transform="translate(1864.000000, 981.000000)">
                <g id="Group" fill="currentColor" fill-rule="nonzero">
                    <path d="M223.937748,77.4464844 L215.022483,68.5221875 C213.235883,66.7337773 210.86045,65.7490273 208.334064,65.7490273 C205.807679,65.7490273 203.431063,66.7337773 201.645645,68.5221875 L199.417223,70.7536562 L191.487289,62.8156875 C193.298719,53.5599844 190.442051,43.9176406 183.81354,37.2776797 L165.979069,19.4251406 C153.821675,6.89246094 136.834589,0 119.492783,0 C101.796259,0 85.1638911,6.89246094 72.6699086,19.4148828 L69.5956794,22.5080078 L107.432346,41.4652344 L107.432346,46.9137109 C107.432346,54.3900781 110.462432,61.7086328 115.744589,66.9992969 L135.120115,86.3865625 C140.417248,91.6930078 147.491916,94.6164844 155.039543,94.6164844 C156.914823,94.6164844 158.788526,94.4331062 160.628334,94.0692695 L168.558269,102.007238 L166.329847,104.237918 C162.641954,107.929547 162.641954,113.935496 166.329059,117.628309 L175.244323,126.552605 C177.031711,128.341016 179.406356,129.326555 181.932742,129.326555 C184.459128,129.326555 186.835743,128.341016 188.621161,126.552605 L224.301926,90.8475273 C227.957894,87.1125 227.957894,81.115625 223.937748,77.4464844 Z M106.801735,75.9078125 C105.285903,74.3904453 103.965167,72.7069805 102.714587,70.9801172 L8.31998633,153.516055 C-2.76300388,164.610273 -2.77876916,182.600898 8.30536404,193.679336 C13.8733054,199.238281 21.1410984,202 28.0541727,202 C34.967247,202 42.5739934,199.226051 48.1194299,193.679336 L130.532419,99.2285547 C128.900319,98.0208945 127.306843,96.7473477 125.84619,95.2848203 L106.801735,75.9078125 Z" id="Shape"></path>
                </g>
                <line x1="251" y1="79" x2="257" y2="64" id="Path-2" stroke="currentColor" stroke-width="18" stroke-linecap="round"></line>
                <line x1="201" y1="154" x2="190" y2="170" id="Path-2" stroke="currentColor" stroke-width="18" stroke-linecap="round"></line>
                <line x1="274" y1="101" x2="295" y2="97" id="Path-2" stroke="currentColor" stroke-width="18" stroke-linecap="round"></line>
                <line x1="266" y1="142" x2="290" y2="154" id="Path-2" stroke="currentColor" stroke-width="18" stroke-linecap="round"></line>
                <line x1="238" y1="166" x2="242" y2="191" id="Path-2" stroke="currentColor" stroke-width="18" stroke-linecap="round"></line>
            </g>
        </g>
    </g>
</svg>